#!OML:ASF H:\Terrain\Patient Classification 1\PLAYGROUND\JustinFriday\JustinFriday.ASF
:FULLY-SPECIFIED
:DEGREES
17
root 9.36285 17.8425 -17.43 -2.02282 -6.28201 -3.92038
lowerback 3.59136 -0.641606 0.839674
upperback 0.461849 -0.77346 3.19955
thorax -1.50647 -0.385451 2.85507
lowerneck -7.87168 -3.30338 -6.91681
upperneck 24.0906 -3.19415 -1.22977
head 8.94961 -2.26239 0.425798
rclavicle -3.17326e-014 1.82882e-014
rhumerus -30.1909 -11.2171 -80.6534
rradius 20.6477
rwrist -8.20248
rhand -18.2631 -20.0253
rfingers 7.12502
rthumb 8.01642 -49.8532
lclavicle -3.17326e-014 1.82882e-014
lhumerus 19.9557 -15.0553 63.92
lradius 135.468
lwrist 5.1882
lhand -38.3485 -24.3246
lfingers 7.12502
lthumb -11.3754 5.34685
rfemur -0.587766 4.57762 23.6703
rtibia 26.0415
rfoot -15.1706 -11.6945
rtoes 3.44975
lfemur 2.47814 0.698166 -12.8554
ltibia 21.9384
lfoot -17.3551 5.66641
ltoes -4.0537
18
root 9.36661 17.8451 -17.4445 -1.9117 -6.35571 -3.89232
lowerback 3.85935 -0.617852 0.770813
upperback 0.345144 -0.732229 3.26394
thorax -1.7767 -0.362533 2.96393
lowerneck -8.06309 -3.24197 -7.04395
upperneck 24.3059 -3.05882 -1.25593
head 9.05974 -2.21827 0.446685
rclavicle 8.39477e-015 -2.0276e-014
rhumerus -30.5053 -11.1136 -80.4611
rradius 20.8784
rwrist -7.58923
rhand -17.097 -20.034
rfingers 7.12502
rthumb 9.14172 -49.8158
lclavicle 8.39477e-015 -2.0276e-014
lhumerus 19.9257 -14.9916 64.3169
lradius 135.601
lwrist 4.66933
lhand -38.0544 -23.8835
lfingers 7.12502
lthumb -11.0918 5.80338
rfemur -0.823806 4.68556 23.6256
rtibia 26.1328
rfoot -15.0967 -11.6894
rtoes 3.35543
lfemur 2.33397 0.562172 -12.9261
ltibia 21.898
lfoot -17.3061 5.85048
ltoes -4.40815
19
root 9.36703 17.8486 -17.458 -1.83051 -6.29238 -4.05187
lowerback 4.15906 -0.625538 0.845235
upperback 0.132259 -0.721625 3.35807
thorax -2.16404 -0.354702 3.02631
lowerneck -7.38276 -3.17525 -7.09733
upperneck 23.9703 -3.01494 -1.2917
head 8.81578 -2.1973 0.462428
rclavicle 1.32797e-014 -1.43125e-014
rhumerus -31.0824 -10.4004 -80.6119
rradius 21.4698
rwrist -8.36249
rhand -17.1554 -21.677
rfingers 7.12502
rthumb 9.08536 -51.4613
lclavicle 1.32797e-014 -1.43125e-014
lhumerus 19.1364 -15.0632 64.556
lradius 135.817
lwrist 4.52546
lhand -38.2878 -24.1984
lfingers 7.12502
lthumb -11.3168 5.47626
rfemur -1.00673 4.75812 23.8203
rtibia 26.2774
rfoot -15.1047 -11.8792
rtoes 3.27826
lfemur 2.24945 0.530928 -12.7376
ltibia 21.7726
lfoot -17.1753 5.84454
ltoes -4.93022
20
root 9.36956 17.8509 -17.4719 -1.87939 -5.97065 -3.78878
lowerback 4.42953 -0.694024 0.553084
upperback 0.0808154 -0.819115 3.31664
thorax -2.36072 -0.399056 3.15942
lowerneck -6.98618 -3.17749 -7.28154
upperneck 23.6123 -3.04991 -1.20437
head 8.62581 -2.2115 0.528736
rclavicle -1.42721e-015 7.95139e-015
rhumerus -31.3153 -9.6027 -80.9405
rradius 21.7954
rwrist -9.58838
rhand -18.1048 -21.2002
rfingers 7.12502
rthumb 8.16914 -51.0223
lclavicle -1.42721e-015 7.95139e-015
lhumerus 18.6423 -14.9351 64.6683
lradius 136.009
lwrist 4.48543
lhand -38.3613 -24.4204
lfingers 7.12502
lthumb -11.3877 5.25036
rfemur -1.07404 4.43805 23.494
rtibia 26.3923
rfoot -15.1369 -11.8683
rtoes 3.42044
lfemur 2.19175 0.370581 -13.0388
ltibia 21.6959
lfoot -17.0528 5.74334
ltoes -5.33148
21
root 9.37563 17.8545 -17.4876 -1.86469 -5.59851 -3.22713
lowerback 4.47589 -0.770741 0.0647129
upperback 0.213748 -0.952806 3.15502
thorax -2.23767 -0.463024 3.27469
lowerneck -7.28305 -3.19048 -7.39369
upperneck 23.5855 -3.03009 -1.16427
head 8.67446 -2.20677 0.558113
rclavicle 4.76462e-015 4.77083e-015
rhumerus -31.0453 -9.13458 -81.2565
rradius 21.6961
rwrist -10.5624
rhand -18.7465 -20.2072
rfingers 7.12502
rthumb 7.54983 -50.0525
lclavicle 4.76462e-015 4.77083e-015
lhumerus 19.2206 -14.722 64.8468
lradius 135.981
lwrist 4.14874
lhand -37.939 -23.9478
lfingers 7.12502
lthumb -10.9805 5.74503
rfemur -1.22278 3.98191 22.7681
rtibia 26.4633
rfoot -15.2132 -11.5955
rtoes 3.97255
lfemur 1.98344 0.135427 -13.7175
ltibia 21.6937
lfoot -16.9344 5.64533
ltoes -4.9073
22
root 9.3804 17.8569 -17.5011 -1.84074 -5.35105 -3.106
lowerback 4.44662 -0.793675 0.0543812
upperback 0.525836 -0.994423 3.08353
thorax -1.89876 -0.489002 3.20385
lowerneck -7.8704 -3.18993 -7.27783
upperneck 23.5706 -2.9695 -1.25764
head 8.77221 -2.17637 0.504041
rclavicle -2.07481e-014 -6.75868e-015
rhumerus -30.4221 -9.12778 -81.4056
rradius 21.5432
rwrist -10.6668
rhand -18.4409 -20.0312
rfingers 7.12502
rthumb 7.8448 -49.8656
lclavicle -2.07481e-014 -6.75868e-015
lhumerus 20.2865 -14.5594 65.0341
lradius 135.874
lwrist 3.88766
lhand -37.4983 -23.3823
lfingers 7.12502
lthumb -10.5554 6.33265
rfemur -1.30697 3.6832 22.5499
rtibia 26.5054
rfoot -15.3689 -11.3455
rtoes 4.64903
lfemur 1.80792 0.142357 -13.8608
ltibia 21.7468
lfoot -16.8318 5.3836
ltoes -4.0842
23
root 9.37864 17.857 -17.5139 -1.84648 -5.22445 -3.42068
lowerback 4.54622 -0.748181 0.381647
upperback 0.758886 -0.920864 3.16523
thorax -1.72273 -0.45706 3.09835
lowerneck -8.15962 -3.25907 -7.17061
upperneck 23.4756 -3.02907 -1.37784
head 8.79103 -2.20383 0.435595
rclavicle -2.11954e-014 -1.59028e-015
rhumerus -30.0464 -9.04328 -81.48
rradius 21.7765
rwrist -10.4851
rhand -17.9035 -21.3526
rfingers 7.12502
rthumb 8.36351 -51.167
lclavicle -2.11954e-014 -1.59028e-015
lhumerus 20.7921 -14.5306 65.2008
lradius 135.906
lwrist 3.91782
lhand -37.377 -23.077
lfingers 7.12502
lthumb -10.4383 6.64388
rfemur -1.3061 3.70577 22.9354
rtibia 26.4722
rfoot -15.3254 -11.5009
rtoes 4.83157
lfemur 1.66586 0.254799 -13.4528
ltibia 21.9083
lfoot -16.7803 5.17687
ltoes -3.98428
24
root 9.37551 17.8585 -17.5294 -1.82507 -5.17355 -3.83083
lowerback 4.74542 -0.611902 0.807413
upperback 0.951464 -0.717799 3.23885
thorax -1.65079 -0.359079 2.9236
lowerneck -8.77588 -3.42921 -7.02296
upperneck 23.6588 -3.20941 -1.46885
head 8.96986 -2.28875 0.348917
rclavicle -6.12505e-015 -6.75868e-015
rhumerus -29.8139 -8.81239 -81.7171
rradius 22.2277
rwrist -10.9798
rhand -18.0474 -24.2419
rfingers 7.12502
rthumb 8.22457 -54.0619
lclavicle -6.12505e-015 -6.75868e-015
lhumerus 21.1236 -14.7714 65.3322
lradius 135.947
lwrist 3.87994
lhand -37.5967 -23.2383
lfingers 7.12502
lthumb -10.6502 6.47177
rfemur -1.30842 3.88799 23.4744
rtibia 26.3372
rfoot -15.0717 -11.8685
rtoes 4.44998
lfemur 1.44983 0.114252 -12.9722
ltibia 22.1969
lfoot -16.844 5.2471
ltoes -4.01977
